<svg version="1.1" xmlns="http://www.w3.org/2000/svg" xmlns:xlink="http://www.w3.org/1999/xlink" width="48" height="48"><defs><linearGradient x1="14.32804" y1="12.25611" x2="33.20265" y2="33.0803" gradientUnits="userSpaceOnUse" id="color-1"><stop offset="0.9" stop-color="#000000" stop-opacity="0.61"></stop><stop offset="1" stop-color="#000000" stop-opacity="0"></stop></linearGradient><filter id="dropshadow-base"><feColorMatrix type="matrix" values="0 0 0 0 0  0 0 0 0 0  0 0 0 0 0  0 0 0 .8 0"></feColorMatrix> <feOffset dx="0" dy="1"></feOffset> <feGaussianBlur stdDeviation="1"></feGaussianBlur> <feComposite in="SourceGraphic"></feComposite></filter><filter id="dropshadow-banner" x="-10%" y="-10%" width="120%" height="130%"><feColorMatrix type="matrix" values="0 0 0 0 0  0 0 0 0 0  0 0 0 0 0  0 0 0 .4 0"></feColorMatrix> <feOffset dx="0" dy="1"></feOffset> <feGaussianBlur stdDeviation="0.5"></feGaussianBlur> <feComposite in="SourceGraphic"></feComposite></filter></defs><g fill="none" fill-rule="nonzero" stroke="none" stroke-width="none" stroke-linecap="butt" stroke-linejoin="miter" stroke-miterlimit="10" stroke-dasharray="" stroke-dashoffset="0" font-family="none" font-weight="none" font-size="none" text-anchor="none" style="mix-blend-mode: normal"><path d="M2,24c0,-12.15026 9.84974,-22 22,-22c12.15026,0 22,9.84974 22,22c0,12.15026 -9.84974,22 -22,22c-12.15026,0 -22,-9.84974 -22,-22z" id="base 1 5" fill="#ff9f0f" stroke-width="1"></path><path d="M19.202,27.85279v-6.47l-2.57082,0v6.47zM19.202,21.02924l0.35355,0.35355v6.82355h-2.92437l-0.35355,-0.35355l0,-6.82355zM25.05076,27.85279l0,-6.47l-2.57082,0v6.47zM25.05076,21.02924l0.35355,0.35355v6.82355h-2.92437l-0.35355,-0.35355v-6.82355zM32.8491,30.15593l-18.16751,0l0,2.57082l18.16751,0zM14.32804,29.80237h18.52106l0.35355,0.35355l0,2.92437h-18.52106l-0.35355,-0.35355zM30.89951,27.85279v-6.47l-2.57082,0v6.47zM30.89951,21.02924l0.35355,0.35355v6.82355h-2.92437l-0.35355,-0.35355v-6.82355zM14.6816,19.07965h18.16751v-1.78211l-8.90698,-4.68788l-9.26053,4.87396zM32.8491,17.13007l0.35355,0.35355l0,1.94958h-18.52106l-0.35355,-0.35355v-1.94958l9.26053,-4.87396z" fill="url(#color-1)" stroke-width="1"></path><path d="M16.27763,21.02924v6.82355h2.92438v-6.82355zM22.12638,21.02924v6.82355h2.92438v-6.82355zM14.32804,32.72675h18.52106v-2.92438h-18.52106zM27.97514,21.02924v6.82355h2.92438v-6.82355zM23.58857,12.25611l-9.26053,4.87396v1.94958h18.52106v-1.94958z" fill="none" stroke-width="0"></path><path d="M19.20201,21.02924v6.82355h-2.92438v-6.82355zM25.05076,21.02924v6.82355h-2.92438v-6.82355zM14.32804,29.80237h18.52106v2.92438h-18.52106zM30.89951,21.02924v6.82355h-2.92438v-6.82355zM32.8491,17.13007v1.94958h-18.52106v-1.94958l9.26053,-4.87396z" fill="#ffffff" stroke-width="0"></path><path d="M2,24c0,-12.15026 9.84974,-22 22,-22c12.15026,0 22,9.84974 22,22c0,12.15026 -9.84974,22 -22,22c-12.15026,0 -22,-9.84974 -22,-22z" id="base 1 1 1" fill="none" stroke-width="1"></path><g fill="#000000" stroke-width="1" font-family="Roboto, sans-serif" font-weight="400" font-size="14" text-anchor="start"></g><rect x="2" y="2" width="44" height="22" fill="none" stroke-width="1"></rect><path d="M2,24v-22h44v22z" fill="none" stroke-width="1"></path><path d="M2,24v-22h44v22z" fill="none" stroke-width="1"></path><path d="M2,24v-22h44v22z" fill="none" stroke-width="1"></path><path d="M2,24v-22h44v22z" fill="none" stroke-width="1"></path></g></svg>