<svg height="512pt" viewBox="0 0 512 512" width="512pt" xmlns="http://www.w3.org/2000/svg" xmlns:xlink="http://www.w3.org/1999/xlink"><linearGradient id="a"><stop offset="0" stop-color="#714c2f"/><stop offset="1" stop-color="#523522"/></linearGradient><linearGradient id="b" gradientUnits="userSpaceOnUse" x1="74.9807" x2="437.0193" xlink:href="#a" y1="74.9807" y2="437.0193"/><linearGradient id="c" gradientUnits="userSpaceOnUse" x1="126.1922" x2="363.5421" y1="136.4801" y2="373.8299"><stop offset="0" stop-color="#ffda2d"/><stop offset="1" stop-color="#fdbf00"/></linearGradient><linearGradient id="d" gradientUnits="userSpaceOnUse" x1="157.6808" x2="172.5135" xlink:href="#a" y1="230.892" y2="245.7246"/><linearGradient id="e" gradientUnits="userSpaceOnUse" x1="238.5352" x2="301.4648" xlink:href="#a" y1="164.8903" y2="227.82"/><path d="m512 256c0 141.386719-114.613281 256-256 256s-256-114.613281-256-256 114.613281-256 256-256 256 114.613281 256 256zm0 0" fill="url(#b)"/><path d="m133.652344 92.855469v97.34375h62.929687l-4.671875-58.503907zm0 0" fill="#ff9100"/><path d="m407.046875 248.796875h-11.0625v-20.976563h11.0625c11.5625 0 20.976563-9.414062 20.976563-20.976562 0-11.566406-9.414063-20.976562-20.976563-20.976562v-20.976563c23.136719 0 41.953125 18.8125 41.953125 41.953125 0 23.136719-18.816406 41.953125-41.953125 41.953125zm0 0" fill="#ff9100"/><path d="m406.417969 238.097656c-5.035157-52.859375-53.351563-94.183594-108.9375-94.183594h-65.027344l-56.847656-56.847656v65.027344c-30.835938 14.472656-53.492188 43.210938-60.414063 75.726562h-24.191406v83.90625h10.488281c35.449219 0 65.9375 25.378907 71.808594 60.203126l3.988281 23.703124h61.25v-41.953124h41.953125v41.953124h61.25l9.230469-54.539062c37.128906-20.136719 59.644531-60.621094 55.449219-102.996094zm0 0" fill="url(#c)"/><path d="m175.585938 238.308594c0 5.792968-4.695313 10.488281-10.488282 10.488281-5.792968 0-10.488281-4.695313-10.488281-10.488281 0-5.792969 4.695313-10.488282 10.488281-10.488282 5.792969 0 10.488282 4.695313 10.488282 10.488282zm0 0" fill="url(#d)"/><path d="m217.558594 185.867188h104.882812v20.976562h-104.882812zm0 0" fill="url(#e)"/></svg>